<mxfile host="65bd71144e">
    <diagram id="CPbDCeKjz19LNqDXNqNC" name="페이지-1">
        <mxGraphModel dx="1113" dy="537" grid="1" gridSize="10" guides="1" tooltips="1" connect="1" arrows="1" fold="1" page="1" pageScale="1" pageWidth="827" pageHeight="1169" math="0" shadow="0">
            <root>
                <mxCell id="0"/>
                <mxCell id="1" parent="0"/>
                <mxCell id="153" value="" style="rounded=1;whiteSpace=wrap;html=1;fontColor=#333333;fillColor=#f5f5f5;strokeColor=#666666;" parent="1" vertex="1">
                    <mxGeometry x="408.29" y="650" width="291.71" height="190" as="geometry"/>
                </mxCell>
                <mxCell id="4" value="" style="edgeStyle=none;html=1;entryX=0.5;entryY=0;entryDx=0;entryDy=0;" parent="1" source="2" target="3" edge="1">
                    <mxGeometry relative="1" as="geometry"/>
                </mxCell>
                <mxCell id="2" value="index.jsp&lt;br&gt;웹사이트 메인화면" style="rounded=0;whiteSpace=wrap;html=1;gradientColor=#b3b3b3;fillColor=#f5f5f5;strokeColor=#666666;fontColor=#0D0D0D;" parent="1" vertex="1">
                    <mxGeometry x="388.29" y="190" width="120" height="60" as="geometry"/>
                </mxCell>
                <mxCell id="6" value="" style="edgeStyle=none;html=1;endArrow=blockThin;endFill=1;exitX=0.5;exitY=1;exitDx=0;exitDy=0;" parent="1" source="3" edge="1">
                    <mxGeometry relative="1" as="geometry">
                        <mxPoint x="448" y="580" as="targetPoint"/>
                        <Array as="points"/>
                    </mxGeometry>
                </mxCell>
                <mxCell id="50" value="&lt;font&gt;idx&lt;/font&gt;" style="edgeLabel;html=1;align=center;verticalAlign=middle;resizable=0;points=[];" parent="6" vertex="1" connectable="0">
                    <mxGeometry x="0.4" y="1" relative="1" as="geometry">
                        <mxPoint x="-1" y="-34" as="offset"/>
                    </mxGeometry>
                </mxCell>
                <mxCell id="25" value="" style="edgeStyle=none;rounded=0;html=1;entryX=0.5;entryY=0;entryDx=0;entryDy=0;exitX=1;exitY=0.5;exitDx=0;exitDy=0;" parent="1" source="3" target="7" edge="1">
                    <mxGeometry relative="1" as="geometry">
                        <mxPoint x="588.29" y="420" as="targetPoint"/>
                        <Array as="points">
                            <mxPoint x="588.29" y="420"/>
                        </Array>
                        <mxPoint x="478.29" y="460" as="sourcePoint"/>
                    </mxGeometry>
                </mxCell>
                <mxCell id="36" value="idx" style="edgeLabel;html=1;align=center;verticalAlign=middle;resizable=0;points=[];" parent="25" vertex="1" connectable="0">
                    <mxGeometry x="0.1673" y="-2" relative="1" as="geometry">
                        <mxPoint x="-36" y="-2" as="offset"/>
                    </mxGeometry>
                </mxCell>
                <mxCell id="54" value="" style="edgeStyle=none;rounded=0;html=1;fontColor=#0D0D0D;startArrow=none;startFill=0;endArrow=blockThin;endFill=1;" parent="1" source="3" target="53" edge="1">
                    <mxGeometry relative="1" as="geometry"/>
                </mxCell>
                <mxCell id="3" value="/lec/list.jsp&lt;br&gt;목록 및 검색" style="rounded=0;whiteSpace=wrap;html=1;gradientColor=#97d077;fillColor=#d5e8d4;strokeColor=#82b366;fontColor=#000000;" parent="1" vertex="1">
                    <mxGeometry x="388.29" y="390" width="120" height="60" as="geometry"/>
                </mxCell>
                <mxCell id="68" value="" style="edgeStyle=none;rounded=0;html=1;fontColor=#0D0D0D;startArrow=none;startFill=0;endArrow=blockThin;endFill=1;exitX=0;exitY=0.45;exitDx=0;exitDy=0;exitPerimeter=0;" parent="1" source="5" edge="1">
                    <mxGeometry relative="1" as="geometry">
                        <mxPoint x="160" y="607" as="targetPoint"/>
                        <Array as="points"/>
                    </mxGeometry>
                </mxCell>
                <mxCell id="70" value="idx" style="edgeLabel;html=1;align=center;verticalAlign=middle;resizable=0;points=[];" parent="68" vertex="1" connectable="0">
                    <mxGeometry x="-0.3778" relative="1" as="geometry">
                        <mxPoint x="-11" as="offset"/>
                    </mxGeometry>
                </mxCell>
                <mxCell id="89" value="" style="edgeStyle=none;html=1;fontColor=#000000;strokeColor=#000000;" parent="1" target="88" edge="1">
                    <mxGeometry relative="1" as="geometry">
                        <mxPoint x="360" y="640" as="sourcePoint"/>
                    </mxGeometry>
                </mxCell>
                <mxCell id="5" value="/lec/detail.jsp&lt;br&gt;상세보기" style="rounded=0;whiteSpace=wrap;html=1;gradientColor=#97d077;fillColor=#d5e8d4;strokeColor=#82b366;fontColor=#000000;" parent="1" vertex="1">
                    <mxGeometry x="218.29" y="580" width="291.71" height="60" as="geometry"/>
                </mxCell>
                <mxCell id="7" value="/lec/delete&lt;br&gt;삭제" style="rounded=0;whiteSpace=wrap;html=1;gradientColor=#ea6b66;fillColor=#f8cecc;strokeColor=#b85450;fontColor=#000000;" parent="1" vertex="1">
                    <mxGeometry x="528.29" y="470" width="120" height="60" as="geometry"/>
                </mxCell>
                <mxCell id="22" value="" style="endArrow=none;html=1;entryX=0.75;entryY=0;entryDx=0;entryDy=0;rounded=0;" parent="1" target="7" edge="1">
                    <mxGeometry width="50" height="50" relative="1" as="geometry">
                        <mxPoint x="448.29" y="310" as="sourcePoint"/>
                        <mxPoint x="628.29" y="390" as="targetPoint"/>
                        <Array as="points">
                            <mxPoint x="618.29" y="310"/>
                        </Array>
                    </mxGeometry>
                </mxCell>
                <mxCell id="46" value="" style="endArrow=blockThin;html=1;fontColor=#000000;entryX=1;entryY=0.75;entryDx=0;entryDy=0;rounded=0;endFill=1;strokeColor=#FF0000;exitX=0.25;exitY=0;exitDx=0;exitDy=0;" parent="1" source="7" target="3" edge="1">
                    <mxGeometry width="50" height="50" relative="1" as="geometry">
                        <mxPoint x="638.29" y="450" as="sourcePoint"/>
                        <mxPoint x="568.29" y="450" as="targetPoint"/>
                        <Array as="points">
                            <mxPoint x="558.29" y="435"/>
                        </Array>
                    </mxGeometry>
                </mxCell>
                <mxCell id="48" value="&lt;font color=&quot;#ff0000&quot;&gt;실패&lt;br&gt;&lt;/font&gt;" style="edgeLabel;html=1;align=center;verticalAlign=middle;resizable=0;points=[];fontColor=#000000;" parent="46" vertex="1" connectable="0">
                    <mxGeometry x="-0.0055" y="-1" relative="1" as="geometry">
                        <mxPoint x="-14" y="2" as="offset"/>
                    </mxGeometry>
                </mxCell>
                <mxCell id="47" value="" style="endArrow=blockThin;html=1;fontColor=#000000;exitX=0.25;exitY=1;exitDx=0;exitDy=0;rounded=0;endFill=1;strokeColor=#FF0000;entryX=1;entryY=0.15;entryDx=0;entryDy=0;entryPerimeter=0;" parent="1" source="7" target="5" edge="1">
                    <mxGeometry width="50" height="50" relative="1" as="geometry">
                        <mxPoint x="578.29" y="485" as="sourcePoint"/>
                        <mxPoint x="520" y="585" as="targetPoint"/>
                        <Array as="points">
                            <mxPoint x="558" y="589"/>
                        </Array>
                    </mxGeometry>
                </mxCell>
                <mxCell id="49" value="실패" style="edgeLabel;html=1;align=center;verticalAlign=middle;resizable=0;points=[];fontColor=#FF0000;" parent="47" vertex="1" connectable="0">
                    <mxGeometry x="0.1675" y="-1" relative="1" as="geometry">
                        <mxPoint x="-17" y="2" as="offset"/>
                    </mxGeometry>
                </mxCell>
                <mxCell id="61" value="" style="edgeStyle=none;rounded=0;html=1;fontColor=#0D0D0D;startArrow=none;startFill=0;endArrow=blockThin;endFill=1;exitX=0.25;exitY=0;exitDx=0;exitDy=0;entryX=0.25;entryY=1;entryDx=0;entryDy=0;" parent="1" source="53" target="57" edge="1">
                    <mxGeometry relative="1" as="geometry">
                        <Array as="points">
                            <mxPoint x="70" y="340"/>
                        </Array>
                    </mxGeometry>
                </mxCell>
                <mxCell id="62" value="&lt;span style=&quot;&quot;&gt;LecDto&lt;/span&gt;" style="edgeLabel;html=1;align=center;verticalAlign=middle;resizable=0;points=[];" parent="61" vertex="1" connectable="0">
                    <mxGeometry x="0.319" y="-2" relative="1" as="geometry">
                        <mxPoint x="-2" y="9" as="offset"/>
                    </mxGeometry>
                </mxCell>
                <mxCell id="53" value="/lec/register.jsp&lt;br&gt;신규" style="rounded=0;whiteSpace=wrap;html=1;gradientColor=#97d077;fillColor=#d5e8d4;strokeColor=#82b366;fontColor=#000000;" parent="1" vertex="1">
                    <mxGeometry x="40" y="390" width="120" height="60" as="geometry"/>
                </mxCell>
                <mxCell id="63" value="" style="edgeStyle=none;rounded=0;html=1;fontColor=#0D0D0D;startArrow=none;startFill=0;endArrow=blockThin;endFill=1;exitX=0.75;exitY=1;exitDx=0;exitDy=0;entryX=0.75;entryY=0;entryDx=0;entryDy=0;strokeColor=#FF0000;" parent="1" source="57" target="53" edge="1">
                    <mxGeometry relative="1" as="geometry"/>
                </mxCell>
                <mxCell id="64" value="&lt;font color=&quot;#ff0000&quot;&gt;취소&lt;/font&gt;" style="edgeLabel;html=1;align=center;verticalAlign=middle;resizable=0;points=[];fontColor=#0D0D0D;" parent="63" vertex="1" connectable="0">
                    <mxGeometry x="-0.3905" y="-1" relative="1" as="geometry">
                        <mxPoint y="5" as="offset"/>
                    </mxGeometry>
                </mxCell>
                <mxCell id="57" value="/lec/register&lt;br&gt;신규" style="rounded=0;whiteSpace=wrap;html=1;gradientColor=#ea6b66;fillColor=#f8cecc;strokeColor=#b85450;fontColor=#000000;" parent="1" vertex="1">
                    <mxGeometry x="40" y="280" width="120" height="60" as="geometry"/>
                </mxCell>
                <mxCell id="58" value="" style="endArrow=none;html=1;fontColor=#0D0D0D;exitX=1;exitY=0.5;exitDx=0;exitDy=0;" parent="1" source="57" edge="1">
                    <mxGeometry width="50" height="50" relative="1" as="geometry">
                        <mxPoint x="260" y="500" as="sourcePoint"/>
                        <mxPoint x="450" y="310" as="targetPoint"/>
                    </mxGeometry>
                </mxCell>
                <mxCell id="73" value="" style="edgeStyle=none;rounded=0;html=1;startArrow=none;startFill=0;endArrow=blockThin;endFill=1;entryX=0.25;entryY=0;entryDx=0;entryDy=0;exitX=0.25;exitY=1;exitDx=0;exitDy=0;" parent="1" source="60" target="72" edge="1">
                    <mxGeometry relative="1" as="geometry"/>
                </mxCell>
                <mxCell id="76" value="LecDto" style="edgeLabel;html=1;align=center;verticalAlign=middle;resizable=0;points=[];" parent="73" vertex="1" connectable="0">
                    <mxGeometry x="-0.6133" y="1" relative="1" as="geometry">
                        <mxPoint x="-1" y="15" as="offset"/>
                    </mxGeometry>
                </mxCell>
                <mxCell id="60" value="/lec/modify.jsp&lt;br&gt;수정" style="rounded=0;whiteSpace=wrap;html=1;gradientColor=#97d077;fillColor=#d5e8d4;strokeColor=#82b366;fontColor=#000000;" parent="1" vertex="1">
                    <mxGeometry x="40" y="580" width="120" height="60" as="geometry"/>
                </mxCell>
                <mxCell id="65" value="" style="curved=1;endArrow=classic;html=1;fontColor=#0D0D0D;exitX=1;exitY=0.25;exitDx=0;exitDy=0;strokeColor=#82b366;gradientColor=#97d077;fillColor=#d5e8d4;" parent="1" source="3" edge="1">
                    <mxGeometry width="50" height="50" relative="1" as="geometry">
                        <mxPoint x="408.29" y="500" as="sourcePoint"/>
                        <mxPoint x="478.29" y="390" as="targetPoint"/>
                        <Array as="points">
                            <mxPoint x="548.29" y="405"/>
                            <mxPoint x="548.29" y="350"/>
                            <mxPoint x="478.29" y="350"/>
                        </Array>
                    </mxGeometry>
                </mxCell>
                <mxCell id="66" value="&lt;font&gt;검색&lt;/font&gt;" style="edgeLabel;html=1;align=center;verticalAlign=middle;resizable=0;points=[];fontColor=#66CC00;" parent="65" vertex="1" connectable="0">
                    <mxGeometry x="-0.0168" y="7" relative="1" as="geometry">
                        <mxPoint x="-7" as="offset"/>
                    </mxGeometry>
                </mxCell>
                <mxCell id="67" value="" style="endArrow=none;html=1;fontColor=#0D0D0D;rounded=0;" parent="1" edge="1">
                    <mxGeometry width="50" height="50" relative="1" as="geometry">
                        <mxPoint x="218" y="590" as="sourcePoint"/>
                        <mxPoint x="190" y="420" as="targetPoint"/>
                        <Array as="points">
                            <mxPoint x="190" y="590"/>
                        </Array>
                    </mxGeometry>
                </mxCell>
                <mxCell id="74" value="" style="edgeStyle=none;rounded=0;html=1;fontColor=#FFFFFF;startArrow=none;startFill=0;endArrow=blockThin;endFill=1;entryX=0.25;entryY=1;entryDx=0;entryDy=0;" parent="1" source="72" target="5" edge="1">
                    <mxGeometry relative="1" as="geometry">
                        <Array as="points">
                            <mxPoint x="292" y="725"/>
                        </Array>
                    </mxGeometry>
                </mxCell>
                <mxCell id="75" value="idx" style="edgeLabel;html=1;align=center;verticalAlign=middle;resizable=0;points=[];" parent="74" vertex="1" connectable="0">
                    <mxGeometry x="-0.2617" relative="1" as="geometry">
                        <mxPoint x="-14" as="offset"/>
                    </mxGeometry>
                </mxCell>
                <mxCell id="77" value="" style="edgeStyle=none;rounded=0;html=1;fontColor=#FFFFFF;startArrow=none;startFill=0;endArrow=blockThin;endFill=1;entryX=0.75;entryY=1;entryDx=0;entryDy=0;exitX=0.75;exitY=0;exitDx=0;exitDy=0;strokeColor=#FF0000;" parent="1" source="72" target="60" edge="1">
                    <mxGeometry relative="1" as="geometry"/>
                </mxCell>
                <mxCell id="78" value="&lt;font color=&quot;#ff0000&quot;&gt;취소&lt;/font&gt;" style="edgeLabel;html=1;align=center;verticalAlign=middle;resizable=0;points=[];fontColor=#FFFFFF;" parent="77" vertex="1" connectable="0">
                    <mxGeometry x="-0.4867" relative="1" as="geometry">
                        <mxPoint y="-11" as="offset"/>
                    </mxGeometry>
                </mxCell>
                <mxCell id="72" value="/lec/modify&lt;br&gt;수정" style="rounded=0;whiteSpace=wrap;html=1;gradientColor=#ea6b66;fillColor=#f8cecc;strokeColor=#b85450;fontColor=#000000;" parent="1" vertex="1">
                    <mxGeometry x="40" y="695" width="120" height="60" as="geometry"/>
                </mxCell>
                <mxCell id="79" value="/lec/fav&lt;br&gt;강좌 찜" style="rounded=0;whiteSpace=wrap;html=1;gradientColor=#ea6b66;fillColor=#f8cecc;strokeColor=#b85450;fontColor=#000000;" parent="1" vertex="1">
                    <mxGeometry x="338.29" y="480" width="80" height="40" as="geometry"/>
                </mxCell>
                <mxCell id="88" value="/lec/payConfirm&lt;br&gt;결제 정보 확인" style="rounded=0;whiteSpace=wrap;html=1;gradientColor=#97d077;fillColor=#d5e8d4;strokeColor=#82b366;fontColor=#000000;" parent="1" vertex="1">
                    <mxGeometry x="300" y="920" width="120" height="60" as="geometry"/>
                </mxCell>
                <mxCell id="92" value="/lec/like&lt;br&gt;강좌 좋아요" style="rounded=0;whiteSpace=wrap;html=1;gradientColor=#ea6b66;fillColor=#f8cecc;strokeColor=#b85450;fontColor=#000000;" parent="1" vertex="1">
                    <mxGeometry x="230.00000000000003" y="480" width="80" height="40" as="geometry"/>
                </mxCell>
                <mxCell id="99" value="" style="edgeStyle=none;rounded=0;html=1;entryX=0.5;entryY=1;entryDx=0;entryDy=0;exitX=1;exitY=0.5;exitDx=0;exitDy=0;" parent="1" source="5" target="7" edge="1">
                    <mxGeometry relative="1" as="geometry">
                        <mxPoint x="638.29" y="479.9999999999999" as="targetPoint"/>
                        <Array as="points">
                            <mxPoint x="588" y="610"/>
                        </Array>
                        <mxPoint x="518.29" y="429.9999999999999" as="sourcePoint"/>
                    </mxGeometry>
                </mxCell>
                <mxCell id="100" value="idx" style="edgeLabel;html=1;align=center;verticalAlign=middle;resizable=0;points=[];rotation=0;" parent="99" vertex="1" connectable="0">
                    <mxGeometry x="0.1673" y="-2" relative="1" as="geometry">
                        <mxPoint x="-40" y="14" as="offset"/>
                    </mxGeometry>
                </mxCell>
                <mxCell id="104" value="" style="endArrow=blockThin;dashed=1;html=1;fontColor=#000000;strokeColor=#000000;exitX=0.5;exitY=1;exitDx=0;exitDy=0;endFill=1;" parent="1" source="88" edge="1">
                    <mxGeometry width="50" height="50" relative="1" as="geometry">
                        <mxPoint x="270" y="890" as="sourcePoint"/>
                        <mxPoint x="360" y="1160" as="targetPoint"/>
                        <Array as="points"/>
                    </mxGeometry>
                </mxCell>
                <mxCell id="109" value="" style="endArrow=none;html=1;fontColor=#000000;strokeColor=#0000FF;" parent="1" target="110" edge="1">
                    <mxGeometry width="50" height="50" relative="1" as="geometry">
                        <mxPoint x="670" y="390" as="sourcePoint"/>
                        <mxPoint x="710" y="390" as="targetPoint"/>
                    </mxGeometry>
                </mxCell>
                <mxCell id="110" value="비동기 흐름" style="text;html=1;strokeColor=none;fillColor=none;align=left;verticalAlign=middle;whiteSpace=wrap;rounded=0;fontColor=#000000;" parent="1" vertex="1">
                    <mxGeometry x="710" y="380" width="70" height="20" as="geometry"/>
                </mxCell>
                <mxCell id="111" value="" style="endArrow=none;html=1;fontColor=#000000;" parent="1" target="112" edge="1">
                    <mxGeometry width="50" height="50" relative="1" as="geometry">
                        <mxPoint x="670" y="370" as="sourcePoint"/>
                        <mxPoint x="710" y="370" as="targetPoint"/>
                    </mxGeometry>
                </mxCell>
                <mxCell id="112" value="일반 흐름" style="text;html=1;strokeColor=none;fillColor=none;align=left;verticalAlign=middle;whiteSpace=wrap;rounded=0;fontColor=#000000;" parent="1" vertex="1">
                    <mxGeometry x="710" y="360" width="70" height="20" as="geometry"/>
                </mxCell>
                <mxCell id="113" value="" style="endArrow=none;html=1;fontColor=#000000;strokeColor=#FF0000;" parent="1" target="114" edge="1">
                    <mxGeometry width="50" height="50" relative="1" as="geometry">
                        <mxPoint x="670" y="410" as="sourcePoint"/>
                        <mxPoint x="710" y="410" as="targetPoint"/>
                    </mxGeometry>
                </mxCell>
                <mxCell id="114" value="실패 시 흐름" style="text;html=1;strokeColor=none;fillColor=none;align=left;verticalAlign=middle;whiteSpace=wrap;rounded=0;fontColor=#000000;" parent="1" vertex="1">
                    <mxGeometry x="710" y="400" width="100" height="20" as="geometry"/>
                </mxCell>
                <mxCell id="115" value="" style="edgeStyle=none;html=1;fontColor=#000000;startArrow=blockThin;startFill=1;endArrow=none;endFill=0;strokeColor=#0000FF;" parent="1" edge="1">
                    <mxGeometry relative="1" as="geometry">
                        <mxPoint x="370" y="520" as="sourcePoint"/>
                        <mxPoint x="370" y="580" as="targetPoint"/>
                    </mxGeometry>
                </mxCell>
                <mxCell id="118" value="&lt;font color=&quot;#0000ff&quot;&gt;idx&lt;/font&gt;" style="edgeLabel;html=1;align=center;verticalAlign=middle;resizable=0;points=[];fontColor=#000000;" parent="115" vertex="1" connectable="0">
                    <mxGeometry x="0.54" relative="1" as="geometry">
                        <mxPoint y="-6" as="offset"/>
                    </mxGeometry>
                </mxCell>
                <mxCell id="116" value="" style="endArrow=none;startArrow=blockThin;html=1;fontColor=#000000;startFill=1;endFill=0;rounded=0;strokeColor=#0000FF;exitX=0.25;exitY=1;exitDx=0;exitDy=0;" parent="1" edge="1">
                    <mxGeometry width="50" height="50" relative="1" as="geometry">
                        <mxPoint x="260.0000000000001" y="520" as="sourcePoint"/>
                        <mxPoint x="260" y="580" as="targetPoint"/>
                        <Array as="points"/>
                    </mxGeometry>
                </mxCell>
                <mxCell id="117" value="&lt;font color=&quot;#0000ff&quot;&gt;idx&lt;/font&gt;" style="edgeLabel;html=1;align=center;verticalAlign=middle;resizable=0;points=[];fontColor=#000000;" parent="116" vertex="1" connectable="0">
                    <mxGeometry x="0.36" relative="1" as="geometry">
                        <mxPoint y="-1" as="offset"/>
                    </mxGeometry>
                </mxCell>
                <mxCell id="129" value="" style="endArrow=blockThin;startArrow=none;html=1;fontColor=#000000;startFill=0;endFill=1;exitX=0.75;exitY=1;exitDx=0;exitDy=0;rounded=0;strokeColor=#0000FF;entryX=0.243;entryY=0;entryDx=0;entryDy=0;entryPerimeter=0;" parent="1" edge="1">
                    <mxGeometry width="50" height="50" relative="1" as="geometry">
                        <mxPoint x="390" y="520" as="sourcePoint"/>
                        <mxPoint x="390.0544699999999" y="580" as="targetPoint"/>
                        <Array as="points"/>
                    </mxGeometry>
                </mxCell>
                <mxCell id="149" value="성공/실패" style="edgeLabel;html=1;align=center;verticalAlign=middle;resizable=0;points=[];fontColor=#0000FF;" parent="129" vertex="1" connectable="0">
                    <mxGeometry x="-0.4389" y="1" relative="1" as="geometry">
                        <mxPoint x="9" y="3" as="offset"/>
                    </mxGeometry>
                </mxCell>
                <mxCell id="131" value="" style="endArrow=blockThin;startArrow=none;html=1;fontColor=#000000;startFill=0;endFill=1;exitX=0.75;exitY=1;exitDx=0;exitDy=0;rounded=0;strokeColor=#0000FF;entryX=0.243;entryY=0;entryDx=0;entryDy=0;entryPerimeter=0;" parent="1" edge="1">
                    <mxGeometry width="50" height="50" relative="1" as="geometry">
                        <mxPoint x="280.0000000000001" y="520" as="sourcePoint"/>
                        <mxPoint x="280.05447000000015" y="580" as="targetPoint"/>
                        <Array as="points"/>
                    </mxGeometry>
                </mxCell>
                <mxCell id="150" value="성공/실패" style="edgeLabel;html=1;align=center;verticalAlign=middle;resizable=0;points=[];fontColor=#0000FF;" parent="131" vertex="1" connectable="0">
                    <mxGeometry x="-0.4667" y="-2" relative="1" as="geometry">
                        <mxPoint x="12" y="4" as="offset"/>
                    </mxGeometry>
                </mxCell>
                <mxCell id="136" value="" style="edgeStyle=none;rounded=0;html=1;fontColor=#0000FF;startArrow=blockThin;startFill=1;endArrow=none;endFill=0;exitX=0;exitY=0.5;exitDx=0;exitDy=0;strokeColor=#0000FF;" parent="1" source="135" edge="1">
                    <mxGeometry relative="1" as="geometry">
                        <mxPoint x="454.145" y="690" as="sourcePoint"/>
                        <mxPoint x="440" y="640" as="targetPoint"/>
                        <Array as="points">
                            <mxPoint x="440" y="700"/>
                        </Array>
                    </mxGeometry>
                </mxCell>
                <mxCell id="145" value="LecReplyDto" style="edgeLabel;html=1;align=center;verticalAlign=middle;resizable=0;points=[];fontColor=#0000FF;" parent="136" vertex="1" connectable="0">
                    <mxGeometry x="0.5" y="1" relative="1" as="geometry">
                        <mxPoint x="51" y="18" as="offset"/>
                    </mxGeometry>
                </mxCell>
                <mxCell id="135" value="/lec/reply/write&lt;br&gt;강좌 댓글 등록" style="rounded=0;whiteSpace=wrap;html=1;gradientColor=#ea6b66;fillColor=#f8cecc;strokeColor=#b85450;fontColor=#000000;" parent="1" vertex="1">
                    <mxGeometry x="550" y="680" width="100" height="40" as="geometry"/>
                </mxCell>
                <mxCell id="138" value="" style="edgeStyle=none;rounded=0;html=1;fontColor=#0000FF;startArrow=blockThin;startFill=1;endArrow=none;endFill=0;strokeColor=#0000FF;exitX=0;exitY=0.5;exitDx=0;exitDy=0;" parent="1" source="141" edge="1">
                    <mxGeometry relative="1" as="geometry">
                        <mxPoint x="480" y="750" as="sourcePoint"/>
                        <mxPoint x="440" y="700" as="targetPoint"/>
                        <Array as="points">
                            <mxPoint x="440" y="750"/>
                        </Array>
                    </mxGeometry>
                </mxCell>
                <mxCell id="147" value="LecReplyDto" style="edgeLabel;html=1;align=center;verticalAlign=middle;resizable=0;points=[];fontColor=#0000FF;" parent="138" vertex="1" connectable="0">
                    <mxGeometry x="-0.4578" relative="1" as="geometry">
                        <mxPoint x="-17" as="offset"/>
                    </mxGeometry>
                </mxCell>
                <mxCell id="139" value="" style="edgeStyle=none;rounded=0;html=1;fontColor=#0000FF;startArrow=blockThin;startFill=1;endArrow=none;endFill=0;strokeColor=#0000FF;exitX=0;exitY=0.5;exitDx=0;exitDy=0;" parent="1" source="140" edge="1">
                    <mxGeometry relative="1" as="geometry">
                        <mxPoint x="480" y="800" as="sourcePoint"/>
                        <mxPoint x="440" y="750" as="targetPoint"/>
                        <Array as="points">
                            <mxPoint x="440" y="800"/>
                        </Array>
                    </mxGeometry>
                </mxCell>
                <mxCell id="148" value="idx" style="edgeLabel;html=1;align=center;verticalAlign=middle;resizable=0;points=[];fontColor=#0000FF;" parent="139" vertex="1" connectable="0">
                    <mxGeometry x="-0.36" y="1" relative="1" as="geometry">
                        <mxPoint x="-9" y="-1" as="offset"/>
                    </mxGeometry>
                </mxCell>
                <mxCell id="140" value="/lec/reply/delete&lt;br&gt;강좌 댓글 삭제" style="rounded=0;whiteSpace=wrap;html=1;gradientColor=#ea6b66;fillColor=#f8cecc;strokeColor=#b85450;fontColor=#000000;" parent="1" vertex="1">
                    <mxGeometry x="550" y="780" width="100" height="40" as="geometry"/>
                </mxCell>
                <mxCell id="141" value="/lec/reply/modify&lt;br&gt;강좌 댓글 수정" style="rounded=0;whiteSpace=wrap;html=1;gradientColor=#ea6b66;fillColor=#f8cecc;strokeColor=#b85450;fontColor=#000000;" parent="1" vertex="1">
                    <mxGeometry x="550" y="730" width="100" height="40" as="geometry"/>
                </mxCell>
                <mxCell id="142" value="" style="edgeStyle=none;rounded=0;html=1;fontColor=#0000FF;startArrow=blockThin;startFill=1;endArrow=none;endFill=0;strokeColor=#0000FF;" parent="1" edge="1">
                    <mxGeometry relative="1" as="geometry">
                        <mxPoint x="510" y="626" as="sourcePoint"/>
                        <mxPoint x="650" y="700" as="targetPoint"/>
                        <Array as="points">
                            <mxPoint x="670" y="626"/>
                            <mxPoint x="670" y="700"/>
                        </Array>
                    </mxGeometry>
                </mxCell>
                <mxCell id="151" value="성공/취소" style="edgeLabel;html=1;align=center;verticalAlign=middle;resizable=0;points=[];fontColor=#0000FF;rotation=0;" parent="142" vertex="1" connectable="0">
                    <mxGeometry x="-0.1732" y="-2" relative="1" as="geometry">
                        <mxPoint as="offset"/>
                    </mxGeometry>
                </mxCell>
                <mxCell id="143" value="" style="edgeStyle=none;rounded=0;html=1;fontColor=#0000FF;startArrow=none;startFill=0;endArrow=none;endFill=0;strokeColor=#0000FF;entryX=1;entryY=0.5;entryDx=0;entryDy=0;" parent="1" target="141" edge="1">
                    <mxGeometry relative="1" as="geometry">
                        <mxPoint x="670" y="700" as="sourcePoint"/>
                        <mxPoint x="520" y="710" as="targetPoint"/>
                        <Array as="points">
                            <mxPoint x="670" y="750"/>
                        </Array>
                    </mxGeometry>
                </mxCell>
                <mxCell id="144" value="" style="edgeStyle=none;rounded=0;html=1;fontColor=#0000FF;startArrow=none;startFill=0;endArrow=none;endFill=0;strokeColor=#0000FF;entryX=1;entryY=0.5;entryDx=0;entryDy=0;" parent="1" edge="1">
                    <mxGeometry relative="1" as="geometry">
                        <mxPoint x="670" y="750" as="sourcePoint"/>
                        <mxPoint x="650" y="800" as="targetPoint"/>
                        <Array as="points">
                            <mxPoint x="670" y="800"/>
                        </Array>
                    </mxGeometry>
                </mxCell>
                <mxCell id="156" value="(댓글류)" style="text;html=1;strokeColor=none;fillColor=none;align=center;verticalAlign=middle;whiteSpace=wrap;rounded=0;fontColor=#0000FF;" parent="1" vertex="1">
                    <mxGeometry x="450" y="650" width="60" height="20" as="geometry"/>
                </mxCell>
            </root>
        </mxGraphModel>
    </diagram>
</mxfile>